<svg width="178" height="43" viewBox="0 0 178 43" fill="none" xmlns="http://www.w3.org/2000/svg">
<g filter="url(#filter0_d_224_901)">
<g filter="url(#filter1_d_224_901)">
<line x1="33.8667" y1="16.5795" x2="78.3153" y2="16.5795" stroke="white" stroke-width="5.24096"/>
</g>
<circle cx="20" cy="16" r="16" fill="#0F88FF"/>
<path d="M20.6964 11.3855V20.5333H19.5887V12.5468H19.5351L17.3017 14.0298V12.9041L19.5887 11.3855H20.6964Z" fill="white"/>
</g>
<g filter="url(#filter2_d_224_901)">
<g filter="url(#filter3_d_224_901)">
<line x1="101.342" y1="17.3785" x2="147.933" y2="17.3785" stroke="white" stroke-width="5.49354"/>
</g>
<circle cx="86.8072" cy="16.7711" r="16.7711" fill="white"/>
<path d="M84.1662 21.9446V21.1018L87.3312 17.6371C87.7026 17.2314 88.0085 16.8787 88.2489 16.579C88.4892 16.2762 88.6671 15.9922 88.7826 15.7269C88.9012 15.4585 88.9605 15.1775 88.9605 14.8841C88.9605 14.547 88.8794 14.2552 88.7171 14.0086C88.5579 13.762 88.3394 13.5716 88.0616 13.4374C87.7838 13.3032 87.4717 13.2361 87.1252 13.2361C86.7569 13.2361 86.4354 13.3125 86.1607 13.4655C85.8891 13.6153 85.6785 13.826 85.5286 14.0976C85.3819 14.3691 85.3086 14.6875 85.3086 15.0527H84.2036C84.2036 14.4908 84.3332 13.9977 84.5922 13.5732C84.8513 13.1487 85.204 12.8178 85.6504 12.5806C86.0998 12.3434 86.6039 12.2248 87.1626 12.2248C87.7245 12.2248 88.2223 12.3434 88.6562 12.5806C89.0901 12.8178 89.4303 13.1377 89.6769 13.5404C89.9235 13.9431 90.0468 14.391 90.0468 14.8841C90.0468 15.2368 89.9828 15.5817 89.8548 15.9189C89.7299 16.2528 89.5114 16.6258 89.1993 17.0379C88.8903 17.4467 88.4611 17.9462 87.9118 18.5361L85.758 20.8396V20.9145H90.2153V21.9446H84.1662Z" fill="black"/>
</g>
<g filter="url(#filter4_d_224_901)">
<circle cx="152.843" cy="16.7711" r="16.7711" fill="white"/>
<path d="M153.442 22.0757C152.824 22.0757 152.273 21.9696 151.789 21.7573C151.309 21.545 150.926 21.2501 150.642 20.8724C150.361 20.4916 150.209 20.0499 150.184 19.5474H151.363C151.388 19.8564 151.495 20.1233 151.682 20.348C151.869 20.5696 152.114 20.7413 152.417 20.863C152.72 20.9848 153.055 21.0456 153.424 21.0456C153.836 21.0456 154.201 20.9738 154.519 20.8303C154.837 20.6867 155.087 20.4869 155.268 20.231C155.449 19.975 155.54 19.6785 155.54 19.3414C155.54 18.9887 155.452 18.6781 155.278 18.4097C155.103 18.1381 154.847 17.9259 154.51 17.7729C154.173 17.62 153.761 17.5435 153.274 17.5435H152.506V16.5135H153.274C153.654 16.5135 153.988 16.4448 154.276 16.3075C154.566 16.1701 154.792 15.9766 154.955 15.7269C155.12 15.4772 155.203 15.1838 155.203 14.8467C155.203 14.5221 155.131 14.2396 154.987 13.9992C154.844 13.7589 154.641 13.5716 154.379 13.4374C154.12 13.3032 153.814 13.2361 153.461 13.2361C153.13 13.2361 152.818 13.2969 152.525 13.4187C152.234 13.5373 151.997 13.7105 151.813 13.9384C151.629 14.1631 151.529 14.4347 151.513 14.753H150.39C150.408 14.2505 150.56 13.8104 150.844 13.4327C151.128 13.0519 151.499 12.7554 151.958 12.5431C152.42 12.3309 152.927 12.2248 153.48 12.2248C154.073 12.2248 154.582 12.3449 155.006 12.5853C155.431 12.8225 155.757 13.1362 155.985 13.5264C156.212 13.9165 156.326 14.3379 156.326 14.7905C156.326 15.3305 156.184 15.7909 155.9 16.1717C155.619 16.5525 155.237 16.8162 154.753 16.9629V17.0379C155.359 17.1377 155.832 17.3952 156.172 17.8104C156.512 18.2224 156.682 18.7327 156.682 19.3414C156.682 19.8627 156.54 20.3309 156.256 20.746C155.975 21.158 155.591 21.4826 155.104 21.7198C154.617 21.9571 154.063 22.0757 153.442 22.0757Z" fill="black"/>
</g>
<path d="M11.3876 40.6221C11.0182 40.6221 10.6995 40.5405 10.4316 40.3774C10.1654 40.2127 9.95985 39.983 9.81507 39.6885C9.67196 39.3923 9.60041 39.0478 9.60041 38.6551C9.60041 38.2624 9.67196 37.9163 9.81507 37.6167C9.95985 37.3155 10.1612 37.0809 10.4191 36.9128C10.6787 36.7431 10.9816 36.6582 11.3277 36.6582C11.5274 36.6582 11.7246 36.6915 11.9193 36.7581C12.114 36.8246 12.2912 36.9328 12.451 37.0826C12.6107 37.2307 12.738 37.427 12.8329 37.6716C12.9277 37.9163 12.9752 38.2175 12.9752 38.5752V38.8248H10.0198V38.3156H12.3761C12.3761 38.0993 12.3328 37.9063 12.2463 37.7365C12.1614 37.5668 12.0399 37.4328 11.8819 37.3347C11.7254 37.2365 11.5407 37.1874 11.3277 37.1874C11.0931 37.1874 10.8901 37.2456 10.7187 37.3621C10.5489 37.4769 10.4183 37.6267 10.3268 37.8114C10.2353 37.9961 10.1895 38.1942 10.1895 38.4055V38.745C10.1895 39.0345 10.2394 39.28 10.3393 39.4813C10.4408 39.681 10.5814 39.8333 10.7611 39.9381C10.9408 40.0413 11.1497 40.0929 11.3876 40.0929C11.5424 40.0929 11.6822 40.0712 11.807 40.028C11.9334 39.983 12.0424 39.9165 12.134 39.8283C12.2255 39.7384 12.2962 39.6269 12.3461 39.4938L12.9152 39.6536C12.8553 39.8466 12.7547 40.0163 12.6132 40.1628C12.4718 40.3075 12.297 40.4207 12.089 40.5022C11.881 40.5821 11.6472 40.6221 11.3876 40.6221ZM13.8713 40.5422V36.7081H14.4404V37.3072H14.4903C14.5702 37.1025 14.6991 36.9436 14.8772 36.8305C15.0552 36.7156 15.2691 36.6582 15.5187 36.6582C15.7716 36.6582 15.9821 36.7156 16.1502 36.8305C16.3199 36.9436 16.4522 37.1025 16.5471 37.3072H16.587C16.6852 37.1092 16.8325 36.9519 17.0288 36.8354C17.2252 36.7173 17.4607 36.6582 17.7352 36.6582C18.078 36.6582 18.3584 36.7656 18.5764 36.9802C18.7944 37.1932 18.9034 37.5252 18.9034 37.9762V40.5422H18.3143V37.9762C18.3143 37.6933 18.237 37.4911 18.0822 37.3696C17.9274 37.2481 17.7452 37.1874 17.5356 37.1874C17.266 37.1874 17.0571 37.2689 16.909 37.432C16.7609 37.5934 16.6869 37.7981 16.6869 38.0461V40.5422H16.0878V37.9163C16.0878 37.6983 16.0171 37.5227 15.8756 37.3896C15.7342 37.2548 15.552 37.1874 15.329 37.1874C15.1759 37.1874 15.0328 37.2282 14.8997 37.3097C14.7682 37.3912 14.6617 37.5044 14.5802 37.6492C14.5003 37.7923 14.4603 37.9579 14.4603 38.1459V40.5422H13.8713ZM21.1087 40.632C20.8658 40.632 20.6453 40.5863 20.4473 40.4947C20.2492 40.4016 20.092 40.2676 19.9755 40.0929C19.859 39.9165 19.8008 39.7035 19.8008 39.4539C19.8008 39.2342 19.844 39.0562 19.9306 38.9197C20.0171 38.7816 20.1328 38.6734 20.2775 38.5952C20.4223 38.517 20.5821 38.4588 20.7568 38.4205C20.9332 38.3805 21.1104 38.3489 21.2885 38.3256C21.5214 38.2957 21.7103 38.2732 21.8551 38.2582C22.0015 38.2416 22.108 38.2141 22.1746 38.1759C22.2428 38.1376 22.2769 38.071 22.2769 37.9762V37.9562C22.2769 37.7099 22.2095 37.5185 22.0747 37.3821C21.9416 37.2456 21.7394 37.1774 21.4682 37.1774C21.187 37.1774 20.9665 37.239 20.8067 37.3621C20.647 37.4853 20.5346 37.6167 20.4697 37.7565L19.9106 37.5568C20.0105 37.3239 20.1436 37.1425 20.31 37.0127C20.4781 36.8812 20.6611 36.7897 20.8591 36.7381C21.0588 36.6848 21.2552 36.6582 21.4482 36.6582C21.5714 36.6582 21.7128 36.6732 21.8726 36.7032C22.034 36.7314 22.1896 36.7905 22.3393 36.8804C22.4908 36.9702 22.6164 37.1059 22.7162 37.2872C22.8161 37.4686 22.866 37.7116 22.866 38.0161V40.5422H22.2769V40.023H22.247C22.207 40.1062 22.1405 40.1952 22.0473 40.2901C21.9541 40.3849 21.8301 40.4656 21.6754 40.5322C21.5206 40.5988 21.3317 40.632 21.1087 40.632ZM21.1986 40.1029C21.4316 40.1029 21.6279 40.0571 21.7877 39.9656C21.9491 39.874 22.0706 39.7559 22.1521 39.6111C22.2353 39.4663 22.2769 39.3141 22.2769 39.1543V38.6152C22.252 38.6451 22.197 38.6726 22.1122 38.6975C22.029 38.7208 21.9325 38.7416 21.8226 38.7599C21.7145 38.7766 21.6088 38.7916 21.5056 38.8049C21.4041 38.8165 21.3217 38.8265 21.2585 38.8348C21.1054 38.8548 20.9623 38.8873 20.8292 38.9322C20.6977 38.9754 20.5912 39.0412 20.5097 39.1294C20.4298 39.2159 20.3899 39.3341 20.3899 39.4838C20.3899 39.6885 20.4656 39.8433 20.617 39.9481C20.7701 40.0513 20.964 40.1029 21.1986 40.1029ZM23.9412 40.5422V36.7081H24.5303V40.5422H23.9412ZM24.2407 36.0691C24.1259 36.0691 24.0269 36.03 23.9437 35.9518C23.8622 35.8736 23.8214 35.7796 23.8214 35.6698C23.8214 35.5599 23.8622 35.4659 23.9437 35.3877C24.0269 35.3095 24.1259 35.2704 24.2407 35.2704C24.3556 35.2704 24.4537 35.3095 24.5353 35.3877C24.6185 35.4659 24.6601 35.5599 24.6601 35.6698C24.6601 35.7796 24.6185 35.8736 24.5353 35.9518C24.4537 36.03 24.3556 36.0691 24.2407 36.0691ZM26.1983 35.4301V40.5422H25.6092V35.4301H26.1983Z" fill="black"/>
<path d="M65.7109 39.617C65.3743 39.617 65.0844 39.5375 64.8412 39.3785C64.5981 39.2195 64.411 39.0006 64.2801 38.7216C64.1492 38.4426 64.0837 38.1238 64.0837 37.7654C64.0837 37.4007 64.1507 37.0788 64.2848 36.7998C64.4204 36.5193 64.609 36.3003 64.8506 36.1429C65.0937 35.9839 65.3774 35.9044 65.7016 35.9044C65.9541 35.9044 66.1816 35.9512 66.3842 36.0447C66.5868 36.1382 66.7528 36.2691 66.8822 36.4374C67.0116 36.6058 67.0918 36.8021 67.123 37.0266H66.5713C66.5292 36.8629 66.4357 36.718 66.2907 36.5917C66.1473 36.4639 65.9541 36.4 65.7109 36.4C65.4958 36.4 65.3072 36.4561 65.1451 36.5684C64.9846 36.679 64.8591 36.8357 64.7687 37.0383C64.6799 37.2393 64.6355 37.4755 64.6355 37.7467C64.6355 38.0241 64.6791 38.2657 64.7664 38.4714C64.8552 38.6772 64.9799 38.8369 65.1405 38.9507C65.3026 39.0645 65.4927 39.1214 65.7109 39.1214C65.8543 39.1214 65.9844 39.0964 66.1013 39.0465C66.2182 38.9967 66.3172 38.925 66.3983 38.8315C66.4793 38.7379 66.537 38.6257 66.5713 38.4948H67.123C67.0918 38.7068 67.0147 38.8977 66.8916 39.0676C66.77 39.2359 66.6087 39.3699 66.4076 39.4697C66.2081 39.5679 65.9759 39.617 65.7109 39.617ZM69.3884 39.617C69.0642 39.617 68.7798 39.5398 68.5351 39.3855C68.292 39.2312 68.1018 39.0154 67.9647 38.7379C67.8291 38.4605 67.7613 38.1363 67.7613 37.7654C67.7613 37.3913 67.8291 37.0648 67.9647 36.7858C68.1018 36.5068 68.292 36.2901 68.5351 36.1358C68.7798 35.9815 69.0642 35.9044 69.3884 35.9044C69.7126 35.9044 69.9963 35.9815 70.2394 36.1358C70.4841 36.2901 70.6743 36.5068 70.8099 36.7858C70.947 37.0648 71.0156 37.3913 71.0156 37.7654C71.0156 38.1363 70.947 38.4605 70.8099 38.7379C70.6743 39.0154 70.4841 39.2312 70.2394 39.3855C69.9963 39.5398 69.7126 39.617 69.3884 39.617ZM69.3884 39.1214C69.6347 39.1214 69.8373 39.0582 69.9963 38.932C70.1553 38.8057 70.2729 38.6397 70.3493 38.434C70.4257 38.2283 70.4639 38.0054 70.4639 37.7654C70.4639 37.5253 70.4257 37.3017 70.3493 37.0944C70.2729 36.8871 70.1553 36.7195 69.9963 36.5917C69.8373 36.4639 69.6347 36.4 69.3884 36.4C69.1422 36.4 68.9396 36.4639 68.7806 36.5917C68.6216 36.7195 68.5039 36.8871 68.4276 37.0944C68.3512 37.3017 68.313 37.5253 68.313 37.7654C68.313 38.0054 68.3512 38.2283 68.4276 38.434C68.5039 38.6397 68.6216 38.8057 68.7806 38.932C68.9396 39.0582 69.1422 39.1214 69.3884 39.1214ZM72.4096 37.382V39.5422H71.8579V35.9512H72.3909V36.5122H72.4377C72.5218 36.3299 72.6496 36.1834 72.8211 36.0727C72.9925 35.9605 73.2138 35.9044 73.485 35.9044C73.7282 35.9044 73.9409 35.9543 74.1233 36.054C74.3056 36.1522 74.4475 36.3018 74.5488 36.5029C74.6501 36.7024 74.7007 36.9549 74.7007 37.2604V39.5422H74.149V37.2978C74.149 37.0157 74.0757 36.7959 73.9292 36.6385C73.7827 36.4795 73.5817 36.4 73.3261 36.4C73.1499 36.4 72.9925 36.4382 72.8538 36.5146C72.7166 36.591 72.6083 36.7024 72.5288 36.8489C72.4493 36.9954 72.4096 37.1731 72.4096 37.382ZM77.3081 35.9512V36.4187H75.3723V35.9512H77.3081ZM75.9521 39.5422V35.4555C75.9521 35.2498 76.0004 35.0783 76.0971 34.9412C76.1937 34.804 76.3192 34.7012 76.4735 34.6326C76.6278 34.564 76.7906 34.5297 76.9621 34.5297C77.0977 34.5297 77.2083 34.5406 77.2941 34.5624C77.3798 34.5843 77.4437 34.6045 77.4858 34.6232L77.3268 35.1002C77.2987 35.0908 77.2598 35.0791 77.2099 35.0651C77.1616 35.0511 77.0977 35.044 77.0182 35.044C76.8358 35.044 76.7041 35.09 76.6231 35.182C76.5436 35.2739 76.5039 35.4088 76.5039 35.5864V39.5422H75.9521ZM78.0814 39.5422V35.9512H78.6331V39.5422H78.0814ZM78.3619 35.3526C78.2544 35.3526 78.1616 35.316 78.0837 35.2428C78.0073 35.1695 77.9691 35.0815 77.9691 34.9786C77.9691 34.8757 78.0073 34.7877 78.0837 34.7144C78.1616 34.6411 78.2544 34.6045 78.3619 34.6045C78.4694 34.6045 78.5614 34.6411 78.6378 34.7144C78.7157 34.7877 78.7547 34.8757 78.7547 34.9786C78.7547 35.0815 78.7157 35.1695 78.6378 35.2428C78.5614 35.316 78.4694 35.3526 78.3619 35.3526ZM79.6437 39.5422V35.9512H80.1767V36.4935H80.2141C80.2796 36.3159 80.398 36.1717 80.5695 36.061C80.7409 35.9504 80.9342 35.895 81.1493 35.895C81.1898 35.895 81.2405 35.8958 81.3012 35.8974C81.362 35.8989 81.408 35.9013 81.4392 35.9044V36.4655C81.4205 36.4608 81.3776 36.4538 81.3106 36.4444C81.2451 36.4335 81.1758 36.4281 81.1025 36.4281C80.928 36.4281 80.7721 36.4647 80.6349 36.538C80.4993 36.6097 80.3918 36.7094 80.3123 36.8372C80.2344 36.9635 80.1954 37.1076 80.1954 37.2697V39.5422H79.6437ZM82.0932 39.5422V35.9512H82.6262V36.5122H82.673C82.7478 36.3205 82.8686 36.1717 83.0354 36.0657C83.2021 35.9582 83.4024 35.9044 83.6362 35.9044C83.8731 35.9044 84.0703 35.9582 84.2277 36.0657C84.3867 36.1717 84.5106 36.3205 84.5994 36.5122H84.6368C84.7288 36.3268 84.8667 36.1795 85.0507 36.0704C85.2346 35.9597 85.4551 35.9044 85.7123 35.9044C86.0334 35.9044 86.296 36.0049 86.5002 36.206C86.7043 36.4055 86.8064 36.7164 86.8064 37.1388V39.5422H86.2547V37.1388C86.2547 36.8738 86.1822 36.6845 86.0372 36.5707C85.8923 36.4569 85.7216 36.4 85.5252 36.4C85.2728 36.4 85.0771 36.4764 84.9384 36.6291C84.7997 36.7803 84.7304 36.972 84.7304 37.2043V39.5422H84.1693V37.0827C84.1693 36.8785 84.103 36.7141 83.9705 36.5894C83.8381 36.4632 83.6674 36.4 83.4585 36.4C83.3151 36.4 83.1811 36.4382 83.0564 36.5146C82.9333 36.591 82.8335 36.6969 82.7572 36.8325C82.6824 36.9666 82.6449 37.1217 82.6449 37.2978V39.5422H82.0932ZM91.2286 35.9512V36.4187H89.3676V35.9512H91.2286ZM89.91 35.0908H90.4617V38.5135C90.4617 38.6694 90.4843 38.7863 90.5295 38.8642C90.5763 38.9406 90.6355 38.992 90.7072 39.0185C90.7805 39.0434 90.8576 39.0559 90.9387 39.0559C90.9995 39.0559 91.0493 39.0528 91.0883 39.0465C91.1273 39.0387 91.1584 39.0325 91.1818 39.0278L91.294 39.5235C91.2566 39.5375 91.2044 39.5515 91.1374 39.5656C91.0704 39.5811 90.9854 39.5889 90.8826 39.5889C90.7267 39.5889 90.574 39.5554 90.4243 39.4884C90.2763 39.4214 90.1531 39.3193 90.0549 39.1821C89.9583 39.045 89.91 38.872 89.91 38.6631V35.0908ZM93.4788 39.617C93.1546 39.617 92.8702 39.5398 92.6255 39.3855C92.3823 39.2312 92.1922 39.0154 92.055 38.7379C91.9194 38.4605 91.8516 38.1363 91.8516 37.7654C91.8516 37.3913 91.9194 37.0648 92.055 36.7858C92.1922 36.5068 92.3823 36.2901 92.6255 36.1358C92.8702 35.9815 93.1546 35.9044 93.4788 35.9044C93.803 35.9044 94.0867 35.9815 94.3298 36.1358C94.5745 36.2901 94.7647 36.5068 94.9003 36.7858C95.0374 37.0648 95.106 37.3913 95.106 37.7654C95.106 38.1363 95.0374 38.4605 94.9003 38.7379C94.7647 39.0154 94.5745 39.2312 94.3298 39.3855C94.0867 39.5398 93.803 39.617 93.4788 39.617ZM93.4788 39.1214C93.7251 39.1214 93.9277 39.0582 94.0867 38.932C94.2456 38.8057 94.3633 38.6397 94.4397 38.434C94.5161 38.2283 94.5542 38.0054 94.5542 37.7654C94.5542 37.5253 94.5161 37.3017 94.4397 37.0944C94.3633 36.8871 94.2456 36.7195 94.0867 36.5917C93.9277 36.4639 93.7251 36.4 93.4788 36.4C93.2325 36.4 93.0299 36.4639 92.8709 36.5917C92.712 36.7195 92.5943 36.8871 92.5179 37.0944C92.4416 37.3017 92.4034 37.5253 92.4034 37.7654C92.4034 38.0054 92.4416 38.2283 92.5179 38.434C92.5943 38.6397 92.712 38.8057 92.8709 38.932C93.0299 39.0582 93.2325 39.1214 93.4788 39.1214ZM96.4626 38.2329L96.4532 37.5503H96.5654L98.1365 35.9512H98.8192L97.1452 37.6438H97.0985L96.4626 38.2329ZM95.9482 39.5422V34.7541H96.5V39.5422H95.9482ZM98.23 39.5422L96.8273 37.7654L97.22 37.382L98.9314 39.5422H98.23ZM100.887 39.617C100.541 39.617 100.243 39.5406 99.9916 39.3879C99.7422 39.2336 99.5498 39.0185 99.4142 38.7426C99.2801 38.4652 99.2131 38.1425 99.2131 37.7747C99.2131 37.4069 99.2801 37.0827 99.4142 36.8021C99.5498 36.52 99.7383 36.3003 99.9799 36.1429C100.223 35.9839 100.507 35.9044 100.831 35.9044C101.018 35.9044 101.203 35.9356 101.385 35.9979C101.567 36.0603 101.733 36.1616 101.883 36.3018C102.033 36.4406 102.152 36.6245 102.241 36.8536C102.33 37.0827 102.374 37.3648 102.374 37.6999V37.9337H99.6059V37.4568H101.813C101.813 37.2541 101.772 37.0733 101.691 36.9144C101.612 36.7554 101.498 36.6299 101.35 36.538C101.203 36.446 101.03 36.4 100.831 36.4C100.611 36.4 100.421 36.4546 100.26 36.5637C100.102 36.6712 99.9792 36.8115 99.8934 36.9845C99.8077 37.1575 99.7648 37.343 99.7648 37.5409V37.8589C99.7648 38.1301 99.8116 38.36 99.9051 38.5486C100 38.7356 100.132 38.8782 100.3 38.9764C100.469 39.073 100.664 39.1214 100.887 39.1214C101.032 39.1214 101.163 39.1011 101.28 39.0606C101.398 39.0185 101.5 38.9561 101.586 38.8735C101.672 38.7894 101.738 38.6849 101.785 38.5603L102.318 38.7099C102.262 38.8907 102.167 39.0497 102.035 39.1868C101.902 39.3224 101.739 39.4284 101.544 39.5048C101.349 39.5796 101.13 39.617 100.887 39.617ZM103.765 37.382V39.5422H103.213V35.9512H103.746V36.5122H103.793C103.877 36.3299 104.005 36.1834 104.176 36.0727C104.348 35.9605 104.569 35.9044 104.84 35.9044C105.084 35.9044 105.296 35.9543 105.479 36.054C105.661 36.1522 105.803 36.3018 105.904 36.5029C106.005 36.7024 106.056 36.9549 106.056 37.2604V39.5422H105.504V37.2978C105.504 37.0157 105.431 36.7959 105.285 36.6385C105.138 36.4795 104.937 36.4 104.681 36.4C104.505 36.4 104.348 36.4382 104.209 36.5146C104.072 36.591 103.964 36.7024 103.884 36.8489C103.805 36.9954 103.765 37.1731 103.765 37.382Z" fill="black"/>
<path d="M127.158 39.5422V35.8524H127.705V36.4097H127.744C127.811 36.2271 127.933 36.079 128.109 35.9653C128.285 35.8515 128.484 35.7947 128.705 35.7947C128.746 35.7947 128.798 35.7955 128.861 35.7971C128.923 35.7987 128.97 35.8011 129.002 35.8043V36.3808C128.983 36.376 128.939 36.3688 128.87 36.3592C128.803 36.348 128.732 36.3424 128.657 36.3424C128.477 36.3424 128.317 36.38 128.176 36.4553C128.037 36.529 127.926 36.6315 127.845 36.7628C127.765 36.8925 127.724 37.0407 127.724 37.2072V39.5422H127.158ZM131.109 39.619C130.754 39.619 130.447 39.5406 130.189 39.3836C129.933 39.2251 129.735 39.0041 129.596 38.7206C129.458 38.4355 129.389 38.104 129.389 37.7261C129.389 37.3481 129.458 37.015 129.596 36.7268C129.735 36.4369 129.929 36.2111 130.177 36.0493C130.427 35.886 130.718 35.8043 131.052 35.8043C131.244 35.8043 131.434 35.8363 131.621 35.9004C131.808 35.9645 131.979 36.0686 132.133 36.2127C132.286 36.3552 132.409 36.5442 132.5 36.7796C132.591 37.015 132.637 37.3049 132.637 37.6492V37.8894H129.793V37.3994H132.061C132.061 37.1912 132.019 37.0054 131.936 36.8421C131.854 36.6787 131.737 36.5498 131.585 36.4553C131.434 36.3608 131.257 36.3136 131.052 36.3136C130.826 36.3136 130.63 36.3696 130.465 36.4817C130.302 36.5922 130.176 36.7364 130.088 36.9141C130 37.0919 129.956 37.2825 129.956 37.4859V37.8126C129.956 38.0912 130.004 38.3274 130.1 38.5212C130.198 38.7134 130.333 38.8599 130.506 38.9608C130.679 39.0601 130.88 39.1098 131.109 39.1098C131.258 39.1098 131.393 39.089 131.513 39.0473C131.635 39.0041 131.739 38.94 131.827 38.8551C131.916 38.7687 131.984 38.6614 132.032 38.5332L132.579 38.687C132.522 38.8728 132.425 39.0361 132.289 39.177C132.153 39.3164 131.984 39.4253 131.784 39.5037C131.584 39.5806 131.359 39.619 131.109 39.619ZM136.113 36.6787L135.604 36.8229C135.572 36.738 135.525 36.6555 135.462 36.5754C135.401 36.4937 135.318 36.4265 135.212 36.3736C135.107 36.3208 134.971 36.2944 134.806 36.2944C134.58 36.2944 134.392 36.3464 134.242 36.4505C134.093 36.553 134.018 36.6835 134.018 36.8421C134.018 36.983 134.07 37.0943 134.172 37.176C134.275 37.2577 134.435 37.3257 134.653 37.3802L135.2 37.5147C135.53 37.5948 135.776 37.7173 135.938 37.8822C136.099 38.0456 136.18 38.2562 136.18 38.514C136.18 38.7254 136.119 38.9144 135.998 39.0809C135.878 39.2475 135.709 39.3788 135.493 39.4749C135.277 39.571 135.026 39.619 134.739 39.619C134.363 39.619 134.051 39.5374 133.805 39.374C133.558 39.2107 133.402 38.972 133.336 38.6582L133.874 38.5236C133.925 38.7222 134.022 38.8712 134.165 38.9704C134.309 39.0697 134.497 39.1194 134.729 39.1194C134.994 39.1194 135.203 39.0633 135.359 38.9512C135.516 38.8375 135.594 38.7014 135.594 38.5428C135.594 38.4147 135.549 38.3074 135.46 38.2209C135.37 38.1329 135.232 38.0672 135.046 38.024L134.432 37.8798C134.094 37.7998 133.845 37.6756 133.687 37.5075C133.53 37.3377 133.451 37.1255 133.451 36.8709C133.451 36.6627 133.51 36.4785 133.627 36.3184C133.745 36.1582 133.906 36.0325 134.11 35.9412C134.315 35.8499 134.547 35.8043 134.806 35.8043C135.171 35.8043 135.458 35.8844 135.666 36.0445C135.876 36.2047 136.025 36.4161 136.113 36.6787ZM138.581 39.619C138.225 39.619 137.919 39.5406 137.661 39.3836C137.404 39.2251 137.207 39.0041 137.067 38.7206C136.93 38.4355 136.861 38.104 136.861 37.7261C136.861 37.3481 136.93 37.015 137.067 36.7268C137.207 36.4369 137.4 36.2111 137.649 36.0493C137.899 35.886 138.19 35.8043 138.523 35.8043C138.715 35.8043 138.905 35.8363 139.092 35.9004C139.28 35.9645 139.45 36.0686 139.604 36.2127C139.758 36.3552 139.88 36.5442 139.972 36.7796C140.063 37.015 140.109 37.3049 140.109 37.6492V37.8894H137.264V37.3994H139.532C139.532 37.1912 139.49 37.0054 139.407 36.8421C139.325 36.6787 139.209 36.5498 139.056 36.4553C138.906 36.3608 138.728 36.3136 138.523 36.3136C138.297 36.3136 138.102 36.3696 137.937 36.4817C137.774 36.5922 137.648 36.7364 137.56 36.9141C137.472 37.0919 137.428 37.2825 137.428 37.4859V37.8126C137.428 38.0912 137.476 38.3274 137.572 38.5212C137.67 38.7134 137.805 38.8599 137.978 38.9608C138.151 39.0601 138.352 39.1098 138.581 39.1098C138.73 39.1098 138.864 39.089 138.984 39.0473C139.106 39.0041 139.211 38.94 139.299 38.8551C139.387 38.7687 139.455 38.6614 139.503 38.5332L140.051 38.687C139.993 38.8728 139.896 39.0361 139.76 39.177C139.624 39.3164 139.456 39.4253 139.256 39.5037C139.056 39.5806 138.831 39.619 138.581 39.619ZM142.576 35.8524V36.3328H140.663V35.8524H142.576ZM141.221 34.9683H141.788V38.4852C141.788 38.6453 141.811 38.7655 141.857 38.8455C141.905 38.924 141.966 38.9769 142.04 39.0041C142.115 39.0297 142.195 39.0425 142.278 39.0425C142.34 39.0425 142.391 39.0393 142.432 39.0329C142.472 39.0249 142.504 39.0185 142.528 39.0137L142.643 39.523C142.604 39.5374 142.551 39.5518 142.482 39.5662C142.413 39.5822 142.326 39.5902 142.22 39.5902C142.06 39.5902 141.903 39.5558 141.749 39.4869C141.597 39.4181 141.471 39.3132 141.37 39.1722C141.27 39.0313 141.221 38.8535 141.221 38.6389V34.9683ZM145.331 40.9259V35.8524H145.879V36.4385H145.946C145.988 36.3744 146.045 36.2928 146.119 36.1935C146.194 36.0926 146.302 36.0029 146.441 35.9244C146.582 35.8443 146.772 35.8043 147.013 35.8043C147.323 35.8043 147.597 35.882 147.834 36.0373C148.071 36.1927 148.256 36.4129 148.389 36.6979C148.522 36.983 148.588 37.3193 148.588 37.7069C148.588 38.0976 148.522 38.4363 148.389 38.723C148.256 39.0081 148.072 39.2291 147.837 39.386C147.601 39.5414 147.33 39.619 147.022 39.619C146.785 39.619 146.595 39.5798 146.453 39.5013C146.31 39.4213 146.201 39.3308 146.124 39.2299C146.047 39.1274 145.988 39.0425 145.946 38.9752H145.898V40.9259H145.331ZM145.888 37.6973C145.888 37.9759 145.929 38.2217 146.011 38.4347C146.093 38.6461 146.212 38.8119 146.369 38.932C146.526 39.0505 146.718 39.1098 146.945 39.1098C147.182 39.1098 147.38 39.0473 147.539 38.9224C147.699 38.7959 147.819 38.6261 147.899 38.4131C147.981 38.1985 148.022 37.9599 148.022 37.6973C148.022 37.4378 147.981 37.204 147.901 36.9958C147.823 36.786 147.704 36.6203 147.543 36.4986C147.385 36.3752 147.186 36.3136 146.945 36.3136C146.715 36.3136 146.521 36.372 146.364 36.4889C146.207 36.6042 146.089 36.766 146.008 36.9742C145.928 37.1808 145.888 37.4218 145.888 37.6973ZM150.539 39.6287C150.305 39.6287 150.093 39.5846 149.902 39.4965C149.712 39.4068 149.561 39.2779 149.448 39.1098C149.336 38.94 149.28 38.735 149.28 38.4948C149.28 38.2834 149.322 38.112 149.405 37.9807C149.488 37.8478 149.6 37.7437 149.739 37.6684C149.878 37.5932 150.032 37.5371 150.2 37.5003C150.37 37.4618 150.541 37.4314 150.712 37.409C150.936 37.3802 151.118 37.3585 151.257 37.3441C151.398 37.3281 151.501 37.3017 151.565 37.2649C151.63 37.228 151.663 37.164 151.663 37.0727V37.0535C151.663 36.8164 151.598 36.6323 151.469 36.501C151.341 36.3696 151.146 36.304 150.885 36.304C150.614 36.304 150.402 36.3632 150.248 36.4817C150.095 36.6002 149.987 36.7268 149.924 36.8613L149.386 36.6691C149.482 36.4449 149.61 36.2703 149.77 36.1454C149.932 36.0189 150.108 35.9308 150.299 35.8812C150.491 35.8299 150.68 35.8043 150.866 35.8043C150.984 35.8043 151.12 35.8187 151.274 35.8475C151.429 35.8748 151.579 35.9316 151.723 36.0181C151.869 36.1046 151.99 36.2351 152.086 36.4097C152.182 36.5842 152.23 36.818 152.23 37.1111V39.5422H151.663V39.0425H151.634C151.596 39.1226 151.532 39.2083 151.442 39.2996C151.353 39.3908 151.233 39.4685 151.084 39.5326C150.935 39.5966 150.754 39.6287 150.539 39.6287ZM150.626 39.1194C150.85 39.1194 151.039 39.0753 151.192 38.9873C151.348 38.8992 151.465 38.7855 151.543 38.6461C151.623 38.5068 151.663 38.3603 151.663 38.2065V37.6877C151.639 37.7165 151.586 37.7429 151.505 37.7669C151.425 37.7893 151.332 37.8094 151.226 37.827C151.122 37.843 151.02 37.8574 150.921 37.8702C150.823 37.8814 150.744 37.891 150.683 37.8991C150.536 37.9183 150.398 37.9495 150.27 37.9927C150.143 38.0344 150.041 38.0976 149.963 38.1825C149.886 38.2658 149.847 38.3795 149.847 38.5236C149.847 38.7206 149.92 38.8696 150.066 38.9704C150.213 39.0697 150.4 39.1194 150.626 39.1194ZM155.879 36.6787L155.369 36.8229C155.337 36.738 155.29 36.6555 155.228 36.5754C155.167 36.4937 155.083 36.4265 154.978 36.3736C154.872 36.3208 154.737 36.2944 154.572 36.2944C154.346 36.2944 154.158 36.3464 154.007 36.4505C153.858 36.553 153.784 36.6835 153.784 36.8421C153.784 36.983 153.835 37.0943 153.938 37.176C154.04 37.2577 154.2 37.3257 154.418 37.3802L154.966 37.5147C155.296 37.5948 155.541 37.7173 155.703 37.8822C155.865 38.0456 155.946 38.2562 155.946 38.514C155.946 38.7254 155.885 38.9144 155.763 39.0809C155.643 39.2475 155.475 39.3788 155.259 39.4749C155.043 39.571 154.791 39.619 154.505 39.619C154.128 39.619 153.817 39.5374 153.57 39.374C153.323 39.2107 153.167 38.972 153.102 38.6582L153.64 38.5236C153.691 38.7222 153.788 38.8712 153.93 38.9704C154.075 39.0697 154.263 39.1194 154.495 39.1194C154.759 39.1194 154.969 39.0633 155.124 38.9512C155.281 38.8375 155.36 38.7014 155.36 38.5428C155.36 38.4147 155.315 38.3074 155.225 38.2209C155.136 38.1329 154.998 38.0672 154.812 38.024L154.197 37.8798C153.859 37.7998 153.611 37.6756 153.452 37.5075C153.295 37.3377 153.217 37.1255 153.217 36.8709C153.217 36.6627 153.275 36.4785 153.392 36.3184C153.511 36.1582 153.672 36.0325 153.875 35.9412C154.08 35.8499 154.312 35.8043 154.572 35.8043C154.937 35.8043 155.224 35.8844 155.432 36.0445C155.642 36.2047 155.791 36.4161 155.879 36.6787ZM159.413 36.6787L158.904 36.8229C158.872 36.738 158.824 36.6555 158.762 36.5754C158.701 36.4937 158.618 36.4265 158.512 36.3736C158.406 36.3208 158.271 36.2944 158.106 36.2944C157.88 36.2944 157.692 36.3464 157.542 36.4505C157.393 36.553 157.318 36.6835 157.318 36.8421C157.318 36.983 157.369 37.0943 157.472 37.176C157.574 37.2577 157.735 37.3257 157.952 37.3802L158.5 37.5147C158.83 37.5948 159.076 37.7173 159.238 37.8822C159.399 38.0456 159.48 38.2562 159.48 38.514C159.48 38.7254 159.419 38.9144 159.298 39.0809C159.177 39.2475 159.009 39.3788 158.793 39.4749C158.577 39.571 158.325 39.619 158.039 39.619C157.662 39.619 157.351 39.5374 157.104 39.374C156.858 39.2107 156.702 38.972 156.636 38.6582L157.174 38.5236C157.225 38.7222 157.322 38.8712 157.465 38.9704C157.609 39.0697 157.797 39.1194 158.029 39.1194C158.293 39.1194 158.503 39.0633 158.659 38.9512C158.816 38.8375 158.894 38.7014 158.894 38.5428C158.894 38.4147 158.849 38.3074 158.759 38.2209C158.67 38.1329 158.532 38.0672 158.346 38.024L157.731 37.8798C157.393 37.7998 157.145 37.6756 156.987 37.5075C156.83 37.3377 156.751 37.1255 156.751 36.8709C156.751 36.6627 156.81 36.4785 156.927 36.3184C157.045 36.1582 157.206 36.0325 157.409 35.9412C157.614 35.8499 157.847 35.8043 158.106 35.8043C158.471 35.8043 158.758 35.8844 158.966 36.0445C159.176 36.2047 159.325 36.4161 159.413 36.6787ZM161.17 39.5422L160.045 35.8524H160.641L161.439 38.6774H161.477L162.265 35.8524H162.87L163.649 38.6678H163.687L164.485 35.8524H165.08L163.956 39.5422H163.399L162.592 36.7075H162.534L161.727 39.5422H161.17ZM167.203 39.619C166.87 39.619 166.578 39.5398 166.327 39.3812C166.077 39.2227 165.881 39.0009 165.74 38.7158C165.601 38.4307 165.531 38.0976 165.531 37.7165C165.531 37.3321 165.601 36.9966 165.74 36.7099C165.881 36.4233 166.077 36.2007 166.327 36.0421C166.578 35.8836 166.87 35.8043 167.203 35.8043C167.536 35.8043 167.828 35.8836 168.078 36.0421C168.329 36.2007 168.525 36.4233 168.664 36.7099C168.805 36.9966 168.875 37.3321 168.875 37.7165C168.875 38.0976 168.805 38.4307 168.664 38.7158C168.525 39.0009 168.329 39.2227 168.078 39.3812C167.828 39.5398 167.536 39.619 167.203 39.619ZM167.203 39.1098C167.456 39.1098 167.665 39.0449 167.828 38.9152C167.991 38.7855 168.112 38.6149 168.191 38.4035C168.269 38.1921 168.308 37.9631 168.308 37.7165C168.308 37.4699 168.269 37.24 168.191 37.027C168.112 36.814 167.991 36.6419 167.828 36.5106C167.665 36.3792 167.456 36.3136 167.203 36.3136C166.95 36.3136 166.742 36.3792 166.579 36.5106C166.415 36.6419 166.294 36.814 166.216 37.027C166.138 37.24 166.098 37.4699 166.098 37.7165C166.098 37.9631 166.138 38.1921 166.216 38.4035C166.294 38.6149 166.415 38.7855 166.579 38.9152C166.742 39.0449 166.95 39.1098 167.203 39.1098ZM169.741 39.5422V35.8524H170.288V36.4097H170.327C170.394 36.2271 170.516 36.079 170.692 35.9653C170.868 35.8515 171.067 35.7947 171.288 35.7947C171.329 35.7947 171.381 35.7955 171.444 35.7971C171.506 35.7987 171.554 35.8011 171.586 35.8043V36.3808C171.566 36.376 171.522 36.3688 171.453 36.3592C171.386 36.348 171.315 36.3424 171.24 36.3424C171.06 36.3424 170.9 36.38 170.759 36.4553C170.62 36.529 170.509 36.6315 170.428 36.7628C170.348 36.8925 170.308 37.0407 170.308 37.2072V39.5422H169.741ZM173.539 39.619C173.231 39.619 172.96 39.5414 172.724 39.386C172.489 39.2291 172.305 39.0081 172.172 38.723C172.039 38.4363 171.972 38.0976 171.972 37.7069C171.972 37.3193 172.039 36.983 172.172 36.6979C172.305 36.4129 172.49 36.1927 172.727 36.0373C172.964 35.882 173.238 35.8043 173.548 35.8043C173.788 35.8043 173.978 35.8443 174.118 35.9244C174.258 36.0029 174.366 36.0926 174.439 36.1935C174.515 36.2928 174.573 36.3744 174.615 36.4385H174.663V34.6224H175.23V39.5422H174.682V38.9752H174.615C174.573 39.0425 174.514 39.1274 174.437 39.2299C174.36 39.3308 174.25 39.4213 174.108 39.5013C173.965 39.5798 173.776 39.619 173.539 39.619ZM173.615 39.1098C173.843 39.1098 174.035 39.0505 174.192 38.932C174.349 38.8119 174.468 38.6461 174.55 38.4347C174.632 38.2217 174.672 37.9759 174.672 37.6973C174.672 37.4218 174.632 37.1808 174.552 36.9742C174.472 36.766 174.354 36.6042 174.197 36.4889C174.04 36.372 173.846 36.3136 173.615 36.3136C173.375 36.3136 173.175 36.3752 173.015 36.4986C172.856 36.6203 172.737 36.786 172.657 36.9958C172.579 37.204 172.539 37.4378 172.539 37.6973C172.539 37.9599 172.579 38.1985 172.659 38.4131C172.741 38.6261 172.861 38.7959 173.02 38.9224C173.18 39.0473 173.378 39.1098 173.615 39.1098Z" fill="black"/>
<defs>
<filter id="filter0_d_224_901" x="0" y="0" width="82.3154" height="40" filterUnits="userSpaceOnUse" color-interpolation-filters="sRGB">
<feFlood flood-opacity="0" result="BackgroundImageFix"/>
<feColorMatrix in="SourceAlpha" type="matrix" values="0 0 0 0 0 0 0 0 0 0 0 0 0 0 0 0 0 0 127 0" result="hardAlpha"/>
<feOffset dy="4"/>
<feGaussianBlur stdDeviation="2"/>
<feComposite in2="hardAlpha" operator="out"/>
<feColorMatrix type="matrix" values="0 0 0 0 0 0 0 0 0 0 0 0 0 0 0 0 0 0 0.25 0"/>
<feBlend mode="normal" in2="BackgroundImageFix" result="effect1_dropShadow_224_901"/>
<feBlend mode="normal" in="SourceGraphic" in2="effect1_dropShadow_224_901" result="shape"/>
</filter>
<filter id="filter1_d_224_901" x="29.6739" y="13.959" width="52.8343" height="13.6265" filterUnits="userSpaceOnUse" color-interpolation-filters="sRGB">
<feFlood flood-opacity="0" result="BackgroundImageFix"/>
<feColorMatrix in="SourceAlpha" type="matrix" values="0 0 0 0 0 0 0 0 0 0 0 0 0 0 0 0 0 0 127 0" result="hardAlpha"/>
<feOffset dy="4.19277"/>
<feGaussianBlur stdDeviation="2.09639"/>
<feComposite in2="hardAlpha" operator="out"/>
<feColorMatrix type="matrix" values="0 0 0 0 0 0 0 0 0 0 0 0 0 0 0 0 0 0 0.25 0"/>
<feBlend mode="normal" in2="BackgroundImageFix" result="effect1_dropShadow_224_901"/>
<feBlend mode="normal" in="SourceGraphic" in2="effect1_dropShadow_224_901" result="shape"/>
</filter>
<filter id="filter2_d_224_901" x="65.8434" y="0" width="86.2825" height="41.9277" filterUnits="userSpaceOnUse" color-interpolation-filters="sRGB">
<feFlood flood-opacity="0" result="BackgroundImageFix"/>
<feColorMatrix in="SourceAlpha" type="matrix" values="0 0 0 0 0 0 0 0 0 0 0 0 0 0 0 0 0 0 127 0" result="hardAlpha"/>
<feOffset dy="4.19277"/>
<feGaussianBlur stdDeviation="2.09639"/>
<feComposite in2="hardAlpha" operator="out"/>
<feColorMatrix type="matrix" values="0 0 0 0 0 0 0 0 0 0 0 0 0 0 0 0 0 0 0.25 0"/>
<feBlend mode="normal" in2="BackgroundImageFix" result="effect1_dropShadow_224_901"/>
<feBlend mode="normal" in="SourceGraphic" in2="effect1_dropShadow_224_901" result="shape"/>
</filter>
<filter id="filter3_d_224_901" x="96.9475" y="14.6318" width="55.3805" height="14.2832" filterUnits="userSpaceOnUse" color-interpolation-filters="sRGB">
<feFlood flood-opacity="0" result="BackgroundImageFix"/>
<feColorMatrix in="SourceAlpha" type="matrix" values="0 0 0 0 0 0 0 0 0 0 0 0 0 0 0 0 0 0 127 0" result="hardAlpha"/>
<feOffset dy="4.39483"/>
<feGaussianBlur stdDeviation="2.19742"/>
<feComposite in2="hardAlpha" operator="out"/>
<feColorMatrix type="matrix" values="0 0 0 0 0 0 0 0 0 0 0 0 0 0 0 0 0 0 0.25 0"/>
<feBlend mode="normal" in2="BackgroundImageFix" result="effect1_dropShadow_224_901"/>
<feBlend mode="normal" in="SourceGraphic" in2="effect1_dropShadow_224_901" result="shape"/>
</filter>
<filter id="filter4_d_224_901" x="131.879" y="0" width="41.9278" height="41.9277" filterUnits="userSpaceOnUse" color-interpolation-filters="sRGB">
<feFlood flood-opacity="0" result="BackgroundImageFix"/>
<feColorMatrix in="SourceAlpha" type="matrix" values="0 0 0 0 0 0 0 0 0 0 0 0 0 0 0 0 0 0 127 0" result="hardAlpha"/>
<feOffset dy="4.19277"/>
<feGaussianBlur stdDeviation="2.09639"/>
<feComposite in2="hardAlpha" operator="out"/>
<feColorMatrix type="matrix" values="0 0 0 0 0 0 0 0 0 0 0 0 0 0 0 0 0 0 0.25 0"/>
<feBlend mode="normal" in2="BackgroundImageFix" result="effect1_dropShadow_224_901"/>
<feBlend mode="normal" in="SourceGraphic" in2="effect1_dropShadow_224_901" result="shape"/>
</filter>
</defs>
</svg>
